<?xml version="1.0" standalone="no"?>
<!DOCTYPE svg PUBLIC "-//W3C//DTD SVG 20010904//EN"
 "http://www.w3.org/TR/2001/REC-SVG-20010904/DTD/svg10.dtd">
<svg version="1.0" xmlns="http://www.w3.org/2000/svg"
 width="877.000000pt" height="794.000000pt" viewBox="0 0 877.000000 794.000000"
 preserveAspectRatio="xMidYMid meet">

<g transform="translate(0.000000,794.000000) scale(0.100000,-0.100000)"
fill="#000000" stroke="none">
<path d="M280 7881 c-101 -31 -175 -118 -186 -219 -5 -39 11 -105 94 -397 55
-192 164 -575 242 -850 78 -275 195 -687 260 -915 65 -228 148 -523 185 -655
98 -350 244 -845 521 -1760 l244 -810 95 -190 c506 -1020 1459 -1744 2585
-1964 616 -120 1242 -81 1843 115 1267 414 2210 1482 2466 2794 120 616 81
1242 -115 1843 -414 1267 -1482 2210 -2794 2466 -616 120 -1242 81 -1843 -115
-496 -162 -960 -433 -1336 -779 -46 -42 -87 -73 -91 -68 -4 4 -52 163 -105
353 -296 1052 -299 1060 -371 1109 -74 51 -54 50 -889 50 -429 -1 -791 -4
-805 -8z m4016 -2082 c32 -5 88 -19 124 -31 74 -24 2510 -1188 2610 -1248 177
-104 321 -296 382 -507 19 -66 23 -102 23 -233 0 -131 -4 -167 -23 -233 -61
-211 -205 -403 -382 -507 -100 -60 -2536 -1224 -2610 -1248 -410 -132 -857 56
-1052 443 -14 28 -39 88 -54 135 l-29 85 0 1325 0 1325 29 85 c15 47 40 108
54 135 120 238 346 412 607 468 83 18 238 21 321 6z"/>
</g>
</svg>
